# xmcd CD database file
#
# Track frame offsets:
#	150
#	21418
#	62250
#	95469
#	125783
#	139291
#	165731
#	191038
#	219003
#
# Disc length: 3177 seconds
#
# Revision: 0
# Processed by: cddbd v1.5.2PL0 Copyright (c) Steve Scherf et al.
# Submitted via: CDex 1.70beta2
#
DISCID=7e0c6709
DTITLE=Schmidtke, Weiss, Ramond, Reichel, Schoof, Schriefel, Völker, Bauer - Heimatlieder
DYEAR=2008
DGENRE=Jazz
TTITLE0=So Ein Tag
TTITLE1=Alte Kameraden
TTITLE2=Land Der Dunklen Wälder
TTITLE3=Hänschen Klein
TTITLE4=Der Mond Ist Aufgegangen
TTITLE5=Bonanza
TTITLE6=In Einem Kühlen Grunde
TTITLE7=Dallas
TTITLE8=So Ein Tag - Reprise
EXTD=YEAR: 2008
EXTT0=
EXTT1=
EXTT2=
EXTT3=
EXTT4=
EXTT5=
EXTT6=
EXTT7=
EXTT8=
PLAYORDER=
